/* XPM */
static char *koto32[] = {
/* columns rows colors chars-per-pixel */
"32 32 217 2 ",
"   c #6D0000",
".  c #790000",
"X  c #7F0D14",
"o  c #700D1F",
"O  c #7C181B",
"+  c #6E192D",
"@  c #74243A",
"#  c #7F2426",
"$  c #5F3559",
"%  c #7C3448",
"&  c #7D4549",
"*  c #706C74",
"=  c #850000",
"-  c #8C0101",
";  c #8F0A0B",
":  c #910000",
">  c #930C0B",
",  c #980E0D",
"<  c #931208",
"1  c #8A1718",
"2  c #951414",
"3  c #9A1818",
"4  c #810A12",
"5  c #9C2A0D",
"6  c #9C2424",
"7  c #9E2A2A",
"8  c #90242A",
"9  c #86373A",
"0  c #99363C",
"q  c #86292B",
"w  c #A92A2A",
"e  c #B1282F",
"r  c #B0272D",
"t  c #A43522",
"y  c #AA393B",
"u  c #B5373E",
"i  c #A92630",
"p  c #AD521B",
"a  c #AA4039",
"s  c #BF7339",
"d  c #943C45",
"f  c #873E42",
"g  c #A93F40",
"h  c #AA4343",
"j  c #B34946",
"k  c #B35649",
"l  c #A15559",
"z  c #B65153",
"x  c #B94D50",
"c  c #BA6B5C",
"v  c #B65C61",
"b  c #BC6767",
"n  c #AF6A6A",
"m  c #C16766",
"M  c #C3797A",
"N  c #C17574",
"B  c #BD923C",
"V  c #CD9529",
"C  c #CE9431",
"Z  c #CE9734",
"A  c #D09D3A",
"S  c #D09C37",
"D  c #CA8C2D",
"F  c #D4A53D",
"G  c #C59B4D",
"H  c #D4A449",
"J  c #D7AA58",
"K  c #CAA24E",
"L  c #DEBA7A",
"P  c #D4AB64",
"I  c #E0BE7C",
"U  c #E2BB6A",
"Y  c #274D92",
"T  c #2E5498",
"R  c #335A9C",
"E  c #375A99",
"W  c #2E4888",
"Q  c #3F619A",
"!  c #315EA2",
"~  c #3F6CAC",
"^  c #435C9B",
"/  c #5E6799",
"(  c #4F669E",
")  c #777D85",
"_  c #496BA5",
"`  c #466AA7",
"'  c #4D72AC",
"]  c #5473AA",
"[  c #5C7AAF",
"{  c #5E7CB0",
"}  c #4773B1",
"|  c #667CAC",
" . c #DD7580",
".. c #FA7A90",
"X. c #EE7D92",
"o. c #7E848B",
"O. c #5A9DA8",
"+. c #6984B5",
"@. c #6C8ABA",
"#. c #6682B3",
"$. c #748DBA",
"%. c #7C94BE",
"&. c #49A5B4",
"*. c #5EAAB8",
"=. c #5AB1B6",
"-. c #63ACB8",
";. c #7F9BC6",
":. c #57BBC8",
">. c #6ABECA",
",. c #6EB6C2",
"<. c #75BCC6",
"1. c #72BFCA",
"2. c #4DC2D0",
"3. c #68C2CD",
"4. c #73C3CE",
"5. c #7EC5CE",
"6. c #75C5D0",
"7. c #7CCAD4",
"8. c #7AC7D2",
"9. c #77D2DE",
"0. c #6DC7D3",
"q. c #9B839A",
"w. c #8494BC",
"e. c #C88987",
"r. c #D09797",
"t. c #D29B9B",
"y. c #D59798",
"u. c #D09190",
"i. c #FE859A",
"p. c #FB8A9D",
"a. c #FF8BA1",
"s. c #FB95A7",
"d. c #ED89A0",
"f. c #D6A5A5",
"g. c #DAADAD",
"h. c #DAA4A2",
"j. c #DDB3B5",
"k. c #CCA6AC",
"l. c #FCA4B3",
"z. c #FEACBA",
"x. c #FCAAB7",
"c. c #E2BEBE",
"v. c #F5A2AF",
"b. c #E4C68B",
"n. c #E5C885",
"m. c #E6CA94",
"M. c #E5D093",
"N. c #E9D1A2",
"B. c #EBD6AC",
"V. c #EDD9B3",
"C. c #E6D7B3",
"Z. c #849AC2",
"A. c #8097C0",
"S. c #99ACCD",
"D. c #93A8CB",
"F. c #ABBAD6",
"G. c #A1B6D5",
"H. c #AAB8D4",
"J. c #D9BFC0",
"K. c #FFBDC8",
"L. c #F9BAC5",
"P. c #8BCAD3",
"I. c #88D2DB",
"U. c #9BD5DC",
"Y. c #8BC5CE",
"T. c #B5C3DB",
"R. c #B8C5DC",
"E. c #A4D7DC",
"W. c #B3CCDD",
"Q. c #B7CBE4",
"!. c #A8DAE2",
"~. c #B4DEE4",
"^. c #BDE5EA",
"/. c #BAE1E7",
"(. c #C2CCDF",
"). c #DAC7CE",
"_. c #E5C5C5",
"`. c #E6CACA",
"'. c #E9CFCF",
"]. c #FCC1CC",
"[. c #FECBD4",
"{. c #FBC9D2",
"}. c #FED4DB",
"|. c #F5D9DC",
" X c #EBD1D0",
".X c #F2E4C4",
"XX c #F3E6CC",
"oX c #F5EAD4",
"OX c #F5ECDB",
"+X c #C3CEE2",
"@X c #C8D1E3",
"#X c #FEDCE2",
"$X c #F6DCE4",
"%X c #C8E7EC",
"&X c #D6E4EC",
"*X c #D7EEF1",
"=X c #DFFDFE",
"-X c #E8E3EB",
";X c #F4E3E2",
":X c #FDE2E5",
">X c #FEE6EA",
",X c #FDEAED",
"<X c #F4E7E8",
"1X c #F8F1E2",
"2X c #FAF5EA",
"3X c #F8F3E8",
"4X c #FEEDF1",
"5X c #E5F4F6",
"6X c #ECF2F7",
"7X c #ECFAFB",
"8X c #EEF7F9",
"9X c #FCF4F3",
"0X c #FBF9F4",
"qX c #F4FCFC",
"wX c #FEFEFE",
"eX c #E8EDF4",
"rX c None",
/* pixels */
"rXrXrXrXrXrXrXrXrXrXrXrX- : - - - - - > rXrXrXrXrXrXrXrXrXrXrXrX",
"rXrXrXrXrXrXrXrXrX- - = - = = = = 3 > = = = = rXrXrXrXrXrXrXrXrX",
"rXrXrXrXrXrXrX- - = e.M : 3 r i f.wX;XM 6 u.w = : rXrXrXrXrXrXrX",
"rXrXrXrXrXrX- - = = r.$X X[.s.p.%XwXwXqXwXj.= - - - rXrXrXrXrXrX",
"rXrXrXrXrX- - = b  .#X>X9X>XK.X.,.%XwXqXwXW.o.1 - - - rXrXrXrXrX",
"rXrXrXrX- : = e K.{.#Xz.}.#X>XL.*.3.wXwXwX6X9.<.9 : - - rXrXrXrX",
"rXrXrX: - = u a...s.#XK.K.].:X{.*.^.%XI.5XqX5.7.I.& : - - rXrXrX",
"rXrX: = = e i.i...a.#X[.[.{.>X{.Y.>.8.3.8.8X5XP.7.9.f - - - rXrX",
"rXrX= w g.4Xl.i.l.i.z.9X,X#X[.>X5.:.8.4.U.wXwX*X6.7.<.1 - - rXrX",
"rX> = j.wXwX,X>XwX#Xi.:X,X}.[.9X/.3.7.0.U.wXwX0XI.3.9.o.- - - rX",
"rX- . h.wX>X>X4XwXwXz.l.s.x.l.v.Y.&.-.<.%XqX8X/.%X4.5.8.# : - rX",
"rX; t.;X>X>X>X>X4X9Xp.e z u h y X l l y q E.8X3.4.4.>.2.* : - rX",
"= z wX9X>X[.x.>X>X>XX.z wX;XqXf.b wXwX:X9 Y.%X3.U.%X~.0.O.- - - ",
"= h wXwX>X>X}.>X,XwXL.j wXwXwXh g.`.h wXl *.3.~.wXwXwXwX!.O : - ",
"= - y.4X,X>X>X>XwXwXL.x wXwXwXu.t.wX'.wXl &.!.wXqX*X8XwX7X9 : - ",
": = i s.qXwXwX$X$X<XX.y t.b M b 2 r.f.b 1 =.%XqX~.E.%X8X=X& - - ",
": : @ } (.wXwXw.^ E / 0 h.r.f.b 2 r.g.b < K 1XwXC.C.wXwXM.5 - - ",
"- : + ` ` $.{ T _ @.E d ;XwXwXM t.wX'.wXj V 2XOX1X1XwXOX.Xa = - ",
"- : 4 R ] #.G.] { %.$.  v wX`.= c.`.y wXk Z m.wXwXwX.XJ M.7 - - ",
"- - = / ` ] +X$.+.+X$.. m wX X= M wXwX<X7 L n.b.XXC.J F D - - - ",
"rX- : $ } ] D.T.F.D.E o 8 l d 4 < k k w 5 Z U L V V Z F p = - rX",
"rX- - e.Q.G.T.F.@XZ.%._ Y W ( ^ G D P J A H Z N.oXm.b.n.e.3 - rX",
"rX- - 3 q.;.+XS.+XF.R.Q.{ ' } Q B U wXN.A H A m.wXwXwXwXwX6 = rX",
"rXrX- = 4 | G.(.F.#.| ` R T S.-XP XXwXB.V A Z C.wXwXwX9Xc.- rXrX",
"rXrX: - , k.G.{ R.Z.Y _ _ R %.wX0X0X0X1XB.oXL oXwX9X2X|.1 = rXrX",
"rXrXrX= 6 u.% ! A.F.R _ T Z.&XwX0X2X2X0XwX1Xb.wXwXwX_.y = rXrXrX",
"rXrXrXrX- = - @ @.{ #.T _ ;.&X6XoXm.oX0X1XH B.wX_.t.7 = rXrXrXrX",
"rXrXrXrXrX: = , ;XqX6X@XA.Y w.wX2XB..X0X0Xn.s 7 ; = = rXrXrXrXrX",
"rXrXrXrXrXrX: = w g.9XwX5XS.F.Q.C.oXwX2X`.j.3 = - > rXrXrXrXrXrX",
"rXrXrXrXrXrXrX: = = 6 g.9XwX).+ c t N `.- = - - - rXrXrXrXrXrXrX",
"rXrXrXrXrXrXrXrXrX> = = 2 6 > w v = = > > - : rXrXrXrXrXrXrXrXrX",
"rXrXrXrXrXrXrXrXrXrXrXrX= = = - - - : = rXrXrXrXrXrXrXrXrXrXrXrX"
};
