/* XPM */
static char *koto64[] = {
/* columns rows colors chars-per-pixel */
"64 64 237 2 ",
"   c #6E0005",
".  c #760007",
"X  c #770916",
"o  c #7A1316",
"O  c #7B121D",
"+  c #7A1321",
"@  c #6E1E34",
"#  c #763034",
"$  c #5D203F",
"%  c #6F3547",
"&  c #473866",
"*  c #4A2E5A",
"=  c #574471",
"-  c #6D6F77",
";  c #70595F",
":  c #850000",
">  c #8D0101",
",  c #8D0A0A",
"<  c #910100",
"1  c #920D00",
"2  c #9C0A0E",
"3  c #97080A",
"4  c #991818",
"5  c #8F1410",
"6  c #A10F15",
"7  c #9B210D",
"8  c #9A2214",
"9  c #A53B14",
"0  c #871C21",
"q  c #A41D22",
"w  c #86282A",
"e  c #9C2323",
"r  c #9C2A2B",
"t  c #953637",
"y  c #A52B2C",
"u  c #A73939",
"i  c #B02D32",
"p  c #AE591C",
"a  c #B96B2B",
"s  c #B35824",
"d  c #A73F43",
"f  c #8C5458",
"g  c #AB4343",
"h  c #AC4B4B",
"j  c #A94849",
"k  c #B45859",
"l  c #B3554B",
"z  c #BD6751",
"x  c #BA6363",
"c  c #B96869",
"v  c #BF7475",
"b  c #CC4653",
"n  c #D55867",
"m  c #C27575",
"M  c #C27B7B",
"N  c #C77878",
"B  c #C36C6B",
"V  c #CD972D",
"C  c #CE9935",
"Z  c #D19E3B",
"A  c #D19C36",
"S  c #C98C37",
"D  c #D3A23F",
"F  c #BB9345",
"G  c #C29B4B",
"H  c #D19F42",
"J  c #D3A243",
"K  c #D6A848",
"L  c #D7AB56",
"P  c #D3AD55",
"I  c #C9817F",
"U  c #C98B69",
"Y  c #DBB567",
"T  c #DDBA75",
"R  c #E1BE7C",
"E  c #073585",
"W  c #1A458F",
"Q  c #234C93",
"!  c #2A5296",
"~  c #2D5599",
"^  c #285399",
"/  c #31579A",
"(  c #345A9C",
")  c #3A5E9D",
"_  c #385496",
"`  c #364A86",
"'  c #3C619F",
"]  c #345EA0",
"[  c #2357A1",
"{  c #3862A4",
"}  c #435897",
"|  c #44619E",
" . c #6C7382",
".. c #4265A2",
"X. c #4A6BA5",
"o. c #476AA6",
"O. c #5877AC",
"+. c #5E7CB0",
"@. c #4670AD",
"#. c #617FB2",
"$. c #C57D81",
"%. c #FF7C93",
"&. c #F77C93",
"*. c #F8758B",
"=. c #5A83BB",
"-. c #6985B5",
";. c #738CB9",
":. c #7B93BE",
">. c #7790BC",
",. c #50ADBA",
"<. c #6EB0BD",
"1. c #6A8992",
"2. c #7597C5",
"3. c #4DB4C2",
"4. c #4BB7C5",
"5. c #53B6C3",
"6. c #5BB9C6",
"7. c #57BBC8",
"8. c #64BECA",
"9. c #67BAC6",
"0. c #74B5C2",
"q. c #5AC0CD",
"w. c #54C4D2",
"e. c #6AC1CD",
"r. c #74C3CF",
"t. c #7AC3CD",
"y. c #7AC7D1",
"u. c #7BC7D1",
"i. c #67CCD9",
"p. c #8C91B3",
"a. c #A196A4",
"s. c #C88484",
"d. c #CE9594",
"f. c #D39A9A",
"g. c #FE8197",
"h. c #FE859A",
"j. c #FE899E",
"k. c #F4849A",
"l. c #FF8DA1",
"z. c #FE9BAC",
"x. c #FB95A8",
"c. c #F694A8",
"v. c #D9ABAB",
"b. c #D6A4A5",
"n. c #DEB6B6",
"m. c #DAB0AF",
"M. c #FFA2B2",
"N. c #FEACBA",
"B. c #FAA9B8",
"V. c #E1BCBC",
"C. c #FCB2BE",
"Z. c #EAA2AA",
"A. c #DDAF83",
"S. c #E2C386",
"D. c #E6CC99",
"F. c #E9D29C",
"G. c #EBD5A9",
"H. c #EDDBB5",
"J. c #E8D0B0",
"K. c #DFC389",
"L. c #849BC3",
"P. c #869CC3",
"I. c #8EA2C7",
"U. c #92A6CA",
"Y. c #98AACC",
"T. c #9EB0CF",
"R. c #9EB2D2",
"E. c #8EAED4",
"W. c #A3B4D2",
"Q. c #ABBAD5",
"!. c #ABBCD7",
"~. c #ABB9D3",
"^. c #FFB5C2",
"/. c #FEBAC6",
"(. c #FFBEC9",
"). c #D5BFC5",
"_. c #84CBD4",
"`. c #8CCDD6",
"'. c #89CFD8",
"]. c #94D2DA",
"[. c #9BD5DD",
"{. c #90CDD7",
"}. c #B9C6DC",
"|. c #A3D8DF",
" X c #ACD3DA",
".X c #95DDE6",
"XX c #A4DAE1",
"oX c #AADBE2",
"OX c #B3DDE4",
"+X c #BBE3E8",
"@X c #98E1E9",
"#X c #C9C0C8",
"$X c #E7C7C8",
"%X c #FFC4CE",
"&X c #FFCBD4",
"*X c #FFC7D1",
"=X c #ECD6D5",
"-X c #FED3DB",
";X c #F5DCDE",
":X c #EBD4CE",
">X c #F1E2C4",
",X c #F3E6CC",
"<X c #F4E9C3",
"1X c #F4EAD5",
"2X c #F6EDDB",
"3X c #EDE1C8",
"4X c #C2CDE1",
"5X c #C8D2E4",
"6X c #D5DDEA",
"7X c #FFDDE3",
"8X c #F3DBE0",
"9X c #C7E7EB",
"0X c #DCE3ED",
"qX c #D1EBEF",
"wX c #D8EEF1",
"eX c #D6F5F8",
"rX c #FFE1E6",
"tX c #FFE6EA",
"yX c #FFEAED",
"uX c #F5EBE7",
"iX c #F8F1E5",
"pX c #FAF4EB",
"aX c #F7F0E1",
"sX c #E5EAF2",
"dX c #E8ECF3",
"fX c #FEEEF1",
"gX c #F7EDF0",
"hX c #E4F3F5",
"jX c #EDF6F9",
"kX c #FDF4F5",
"lX c #FCFAF5",
"zX c #FFF7F8",
"xX c #F4F9FB",
"cX c #FEFEFE",
"vX c #F3F5F8",
"bX c #E5E9ED",
"nX c None",
/* pixels */
"nXnXnXnXnXnXnXnXnXnXnXnXnXnXnXnXnXnXnXnXnXnXnXnXnXnX> > > > > < > > > > > > nXnXnXnXnXnXnXnXnXnXnXnXnXnXnXnXnXnXnXnXnXnXnXnXnXnX",
"nXnXnXnXnXnXnXnXnXnXnXnXnXnXnXnXnXnXnXnXnXnX> > > > > > > > > > > > > , > > > < > > nXnXnXnXnXnXnXnXnXnXnXnXnXnXnXnXnXnXnXnXnXnX",
"nXnXnXnXnXnXnXnXnXnXnXnXnXnXnXnXnXnXnX> > , > > > > > > > > > > > > > : : , > > > > > , < nXnXnXnXnXnXnXnXnXnXnXnXnXnXnXnXnXnXnX",
"nXnXnXnXnXnXnXnXnXnXnXnXnXnXnXnXnX> > > > : : > > > > < , < > : > > 5 u r : > > > > > : > > > nXnXnXnXnXnXnXnXnXnXnXnXnXnXnXnXnX",
"nXnXnXnXnXnXnXnXnXnXnXnXnXnXnXnX> > > > u M u > > > > : : : : : 4 $XkXcXuXf.u > : : > k y : > > nXnXnXnXnXnXnXnXnXnXnXnXnXnXnXnX",
"nXnXnXnXnXnXnXnXnXnXnXnXnXnX> > > > , : m cXcXb.> > 2 i b b n n #XcXzXcXcXcXcXn.u l $XcXk : > > > > nXnXnXnXnXnXnXnXnXnXnXnXnXnX",
"nXnXnXnXnXnXnXnXnXnXnXnXnX> > > > > > > k ;Xg zXZ.Z.rX^.j.l.l.k.OXcXxXcXcXcXcXcXcXcXcXf., > > > > > > nXnXnXnXnXnXnXnXnXnXnXnXnX",
"nXnXnXnXnXnXnXnXnXnXnX> > > > > > > > . x kXZ.zXcXcXfXcXN.&.h.k.0.hXcXcXcXcXcXcXzXcXhXt > > > > > > > > > nXnXnXnXnXnXnXnXnXnXnX",
"nXnXnXnXnXnXnXnXnXnX> > > > > > , e 4 b (.cXzXcXcXkXh.yX7X*.h.h.<.'.hXcXcXcXcXcXcXcXjX8.- o > > > > > > > > nXnXnXnXnXnXnXnXnXnX",
"nXnXnXnXnXnXnXnXnX> > > > > < : f.cX-X%.-XcXN.%XcXcXkXcX7Xz.%.k.9.3.6.9XcXcXcXcXcXcXcXXX.X[.f > < > > > > > > nXnXnXnXnXnXnXnXnX",
"nXnXnXnXnXnXnXnX> > < > > > : 3 C.uX7Xx.7XcX%.N.cX-X-XcXcXcX%Xk.9.7.5.6.jXcXcXcXcXcXcXqX6.6.w.1., : > > > > > > nXnXnXnXnXnXnXnX",
"nXnXnXnXnXnXnX> > > > > > : q *.g.%.z.N.tXkX%.%XcXg.N.cX%Xz.cXM.<.7.3.].cXjXxXcXcXcXcXqXy.].`..X<.# < > > > > > > nXnXnXnXnXnXnX",
"nXnXnXnXnXnXnX> > > > > : y g.j.g.g.z.N.7XcXg.-XtX%.tXkX-X7XcXB.<.3.r.jXcX+X{.hXxXcXcXxX_.8.r.9.XXr.# < > > > > > nXnXnXnXnXnXnX",
"nXnXnXnXnXnX> > > > > : i h.h.g.h.g.j.N.&XcXj.7X%XM.cXh.^.cX7X&.<.3.qXjXwXu.{.6.].jXcXwXe.].].].9.[.w.t < > > > > < nXnXnXnXnXnX",
"nXnXnXnXnX> > > > > : q h.h.g.h.h.h.g.^.^.cXM.7X^.7X/.z.cXfXB.-X`.3.8.8.`.5.[.5.`.y.hXcXxXXX3._.u._.e.u.t > > > > > > nXnXnXnXnX",
"nXnXnXnXnX> > > > > 3 *.h.g.h.h.h.h.%.M.C.zX&X-X*XrXz.zXfXB.yX/.bX8.5.6.].5.].5.{.e.wXcXcXcX+X_.u.'.e.u.<.5 > > > > > nXnXnXnXnX",
"nXnXnXnX> > > 5 5 v.8X&Xl.%.h.%.%.%.%.h.N.-XkX-XyX*XyXfXN.yXzX&XOX5.6.6.[.5.].8.u.+XcXcXcXcXcXXX6.XX5.].i.1.< : , > > > nXnXnXnX",
"nXnXnX> > > > v.gXkXcXcXfXx.%.M./.^.z.g.l.^.zXcXzXfXyX^.(.%XcXtX_.3.6.5.[.6._.u.7.hXcXcXcXcXcX+X].y.8.[.,.@Xf > > > > > > nXnXnX",
"nXnXnX> > > d cXcXcXcXzXcX(.^.cXcXcXcXx.%.j.%XkXzX-X(.fX^.N.zXgX0XOX5.5._.u.7.XX,.oXcXcXcXcXcXcXu.3.oX8.e.].,., > > > > > nXnXnX",
"nXnX> > , : s.cXzXcXcXcXcXfXzXcXzXcXzXyXM.%.&X7X7X(.-X&X*X-XcXuX XqX5.6.6.|.3.{._.+XcXcXcXxXxXcXXX[.r.,.XX<.i.a.> > > > > > nXnX",
"nXnX> > , : s.cXcXcXzXtXtX7XzXzXcXcXcXcX&X%.rXkX-X7X7X7XC.M.&XyXwXu.5.6.3._.{.,.].cXcXxXcXxX9XcXxX6.5.|.y.3.XX8.0 < > > > > nXnX",
"nXnX> > > : e yXcXyX7XtXtXyX-XfXzXcXcXcX&X%.h.j.h.%.h.z.-XN.%.j.<.4.q.q.q.7.XXi.[.cXqXjXcXjX5.e.wX+X|.r.,.|.r.w.- > > > > > nXnX",
"nX> > : 4 d.v.uXyX7XfXyXtXyXkX7XfXcXcXcX/.%.i 6 3 2 2 2 6 4 3 4 w w o o o o o t y f q.hXcXhX'.'.].[.6.7.XX_.3.6.,.< > > > < > nX",
"nX> : 4 =XcXcXkX7XfXyX7X7X7XtXkX7XkXcX7Xj.h.4 u s.v s.h 4 M I y > > B N N N B , > w e.+XcX+X6.e.5.7.u.|.8.3.6.6.q.% < > > > > nX",
"nX> : b.cXzXcXkXrXyXrX&XM.%X7XyXtXyXyXx.%.l.2 M cXxXcXn.n.cXcXx : b.cXcXcXcXcXV.< w ].9XcXXXr._.`.].'._._.8.3.5.q.- > , > > > nX",
"nX> < $XcXcXcXrX7XfX7X(.%.C.7XyXrXrXcXcX^.h.2 m cXkXzXkXcXxXcXh j cXxXlXcXcXkXcXB o 4.'.hXr.u.y.+XqXhXcXcXxX[.8.w.<.> > > > > nX",
"> > : v cXcXcXzXrXfXtX-X*X-X7XfXrXfXcXcXcXz.2 v cXcXcXcXzXcX$X> x cXcX$Xu v.cXcXN o 7.r.XX3.,.oXcXcXcXcXcXcXcXxXOX5.0 > > > > > ",
"> > > f.cXxXcXzXrXyXyXyX7XtXfXyXrXcXcXcXcX^.3 M cXzXcXcXcXcXc . x cXcXc   h cXcXN o q.6.e.6.+XcXcXxXcXjXhXcXcXcXcX.X# 1 > > > > ",
"> > > , V.cXzXcXkX-XyXyXyXfXtXtXyXcXcXcXcX%X3 v cXzXcXcXcXcXuX, k cXcX=Xx $XcXcXB o 6.6.3.9XcXcXcXcXcX+XxXcXcXcXcXeX; 1 > > > > ",
"> > > > < f.7X/.yXcX7X7X7X7XyXgXcXcXcXcX-Xx.2 v cXxXcXuXxXzXcXl u cXcXzXcXcXzXcXB o 6.5.r.cXjXwXxXcXwXOXcXcXcXxXcXxX- : , > > > ",
"> > > < : n h.x.cXcXcXkXkXzXzXfXcXcXcXxX(.%.2 v cXzXcXv.f.cXcXx : s.cXcXcXcXcXd.> # q.4.{.cXxX+Xu.9X+X+XqXXX+XqXcXeX .: > > > > ",
"> > > > > n k.z.cXcXcXcXcXcXzXc.$XtX8XB.k.k.q 4 h u h r , g g 4 > : u g g g u , > w e.,. XcXcXcXxXu.`.`.XXhXcXcXcX+X .< > > > > ",
"> > > > 3 & / ) 0XcXxXcXxXcX0X| } ) } } _ | o q g g g j h d g 4 : > u g g g u , > 7 P G >XcXcXlXlXR K.1XcXcXcXcXpXT a > > > > > ",
"> > > > < & =.) +.cXxXzXcXzXO.;.;.Q ^ ^ W.@.  N cXzXcXcXcXcXcXx . M cXcXcXzXcXd.: 4 D D 2XcXcXcXS.,XF.2XcXcXcXlXD.D a : > > > > ",
"> > > > < * L.O.W #.#.R.!.o.^ ) ~ / O.-.+.{   N cXxXzXcXcXzXcXk u cXcXcXcXcXzXcXx 1 K H 2XcXcXG.>XcX>XiXcXcXcXH.D.<Xz : < > > > ",
"> > > < < % [ ! ..{ Q .._ ~ _ ] O.Q !.}.W ] X u m 2XcXcXcX:Xm 4 k cXcX=Xx :XcXcX$.1 K C >XcXaXH.cXcXpX2XcXcXcXaXD.cXI : , > > > ",
"> > > > < @ { Q Q.Y.W !.vXO.Q ;.sX( ) ..X.( + > : $XcXzXcXv.. : x cXcXc   h cXcXm 1 K C T cXiXpXcXcXcXlXcX>XL T G.cXk : > > > < ",
"> > > > < O ( ^ ) ) ! Y.zX2.2._ ( O.] 6XsX] O < : $XcXxXcXm.> > x cXcX$Xu v.cXcX$.1 L L V F.cXcXcXcXcXcXcXY C H Z L 8 > > > > > ",
"nX> > > > > ` o.O.~ o.+.T.~.W.@.] T.:.zX}.{ + < > $XcXkXcXv.: > k lXzXcXcXcXkXcXv 1 S.pXT V H.cXcXcXcXcXD.A J J J S > > > > > nX",
"nX> > > > < * E.!.Q ..Y.W.4X~.#.p.T.4XU.O.( + > : $XcXzXcXn.: > > b.cXcXcXcXcXn.< 7 K T >XF.V Y S.D.T L A D J J K a > > > > > nX",
"nX> > > > < @ { _ ~ Q #.T.5XU.#.2.}.5XR.L.( + < > k s.N s.k > < : : c $.M M m , : 8 J A V G.G.V Z C Z Z J J J J K 9 > > > > > nX",
"nX> > > > > : ` { L.#.O.#.L.U.sXT.W.L.P.~ ! @ 0 + X . . . . + O 8 7 1 1 1 1 1 7 7 9 J J J C 3XS.C Z J J J J J K C , : < > > > nX",
"nXnX> > , : y #XL.U.Q.2.P.vXvXzXvXQ.I.X.+.O...^ ( ] { ] { { ] ( G J K K J L L D J J J J J Z Y zXG.T L H A Z A D s > , : > < nXnX",
"nXnX< > > : c cX0X~.4X4XP.zXT.] }.cXL.L.W.W.X.~ / ~ ! Q P.Y.Q ) G J J J K iXH.C J H J J J J J 2XcXcXlXaX1X,X,X1X:XkXx : > > nXnX",
"nXnX> > > > , i  .!.!.R.U.cX-.E R.0XU.5X4XW.4X6XX.) ;./ ) / ! ) G J Z K 2XcX2XJ J J J J J J J 1XcXcXcXcXcXcXcXcXcXcXj : , > nXnX",
"nXnXnX> > > > : j p.L.o.!.dXdX}.zXzX>.~.!.U.6XxX+.o.Q.~ ( ;.) ! G J D ,XcXcXcXL H J J J J H J iXcXcXcXcXcXcXcXcXcXlXr > > nXnXnX",
"nXnXnX> > > > , < $ { ;.;.I.5XzXW.I.#.-.Y.P.] X.~ / ! / ) dXsX-.F A D.cXlXlXcXT Z J J J J Z P cXcXcXcXcXcXcXcXcXcX$X> > > nXnXnX",
"nXnXnXnX> > > > > : a.E.5X!.2.L.R.R.L...( ..) ( ( / ! ~ | vXcXcXG.J iXcXpXlXcXT V Z Z Z Z C R cXcXcXcXcXcXcXgXV.cXx : < nXnXnXnX",
"nXnXnXnXnX> > > > 4 x Y.4XT.#.-.}.4XQ.:.! / / ~ / ~ I.o.( jXcXxXcX1XlXcX1XcXcXS.Y S.S.S.S.D H.cXcXcXcXcXlXlXcXb.g , > nXnXnXnXnX",
"nXnXnXnXnX> > > > 3 I #XU.T.| >.W.}.L.:...~ ) Q.O.! +./ Q 6XcXvXxXcXcXlX1XcXcXlXzXcXcXcX1XJ iXcXcXcXcXcX$XgXcX:X, : > nXnXnXnXnX",
"nXnXnXnXnXnX> > : g cXf.g ;.Q X.U.Y.0Xo.~ / ( O.' ~ ..+.+.4XcXcXiXcXcX2X1XcXcXcXlXlXzXcXY T cXcXcXcXcXcX$Xd.;X4 > > nXnXnXnXnXnX",
"nXnXnXnXnXnXnX> > e M u : @ _ ' | P.cXU.! { ( ! ( ! T.cXcXcXcXcXiX1XcXH.pXcXlX2XpXlXcXG.V >XcXcXlXlXzXcXcXc : > > nXnXnXnXnXnXnX",
"nXnXnXnXnXnXnX> > > : > : < + _ Q ( L.o.o.5X{ ( / ! ! !.cXvX0XdXcX1XiXH.lX>X,XlXcXcX>XA T cXcXcXlX:XcXkXs.5 > > > nXnXnXnXnXnXnX",
"nXnXnXnXnXnXnXnX> > > > > : < 0 T.L.o./ ..O.! Q ~ 4XP.W Y.cXxX0X3X,XS.S.,XpXcXcXcXD.Z A S.cXcXcXyXc x r : > > > nXnXnXnXnXnXnXnX",
"nXnXnXnXnXnXnXnXnX> > > > > > y cXcXcXdX0X0X6X:./ !.#.~ W :.cXcXlX>XY L H.2XpXcXxXG.K Z K K l y 5 > : : < > > nXnXnXnXnXnXnXnXnX",
"nXnXnXnXnXnXnXnXnXnX> > > > > : b.cXzXcXcXcXcXcX}.Q Q ~ L.vXzXsXaXpXcX2X,X2X,X1XiXcXlXT s 1 : > > > > > > > nXnXnXnXnXnXnXnXnXnX",
"nXnXnXnXnXnXnXnXnXnXnX> > > > > , f.cXcXcXcXlXcXcX0X-.~ T.jXcXcXcXiX1XlXiXlXcXcXcXcXcXcXk : , > > > > > > nXnXnXnXnXnXnXnXnXnXnX",
"nXnXnXnXnXnXnXnXnXnXnXnXnX> > > > : r M =XcXcXzXzXcXcX6XI.+.=.2.T Y F.G.cXpXcX:Xd.f.m h 4 > > > < > > nXnXnXnXnXnXnXnXnXnXnXnXnX",
"nXnXnXnXnXnXnXnXnXnXnXnXnXnX> > > > > : , M zXcXcXcXzXcXcXvX= & p A.U 9 d.cXcXm.. > : : > > > > > > nXnXnXnXnXnXnXnXnXnXnXnXnXnX",
"nXnXnXnXnXnXnXnXnXnXnXnXnXnXnXnX> > > < > : r b.uXxXcXcXcXs.< > r b.: : : u n.:X< , < > , > > > nXnXnXnXnXnXnXnXnXnXnXnXnXnXnXnX",
"nXnXnXnXnXnXnXnXnXnXnXnXnXnXnXnXnX> > > > , > : > e u g e : : k kXg > > > : > 4 < > > > > > > nXnXnXnXnXnXnXnXnXnXnXnXnXnXnXnXnX",
"nXnXnXnXnXnXnXnXnXnXnXnXnXnXnXnXnXnXnX> > > > > > : : : > < : x v : > > > > > > > > > > > nXnXnXnXnXnXnXnXnXnXnXnXnXnXnXnXnXnXnX",
"nXnXnXnXnXnXnXnXnXnXnXnXnXnXnXnXnXnXnXnXnXnX> > > > > < > > > : : > > > > > > > > > nXnXnXnXnXnXnXnXnXnXnXnXnXnXnXnXnXnXnXnXnXnX",
"nXnXnXnXnXnXnXnXnXnXnXnXnXnXnXnXnXnXnXnXnXnXnXnXnXnX> > > > > > , > > > > > nXnXnXnXnXnXnXnXnXnXnXnXnXnXnXnXnXnXnXnXnXnXnXnXnXnX"
};
