/* XPM */
static char *koto16[] = {
/* columns rows colors chars-per-pixel */
"16 16 195 2 ",
"   c #7F0000",
".  c #7E2326",
"X  c #5E2B4B",
"o  c #653F5E",
"O  c #703751",
"+  c #603C63",
"@  c #6F4E6F",
"#  c #79506F",
"$  c #77767A",
"%  c #820000",
"&  c #830000",
"*  c #850000",
"=  c #850100",
"-  c #860000",
";  c #870000",
":  c #840304",
">  c #880000",
",  c #890000",
"<  c #890101",
"1  c #8A0000",
"2  c #8B0000",
"3  c #8A0202",
"4  c #8B0203",
"5  c #8D0000",
"6  c #8E0000",
"7  c #890504",
"8  c #8C0808",
"9  c #8E0908",
"0  c #8B0D0E",
"q  c #8E0E0C",
"w  c #8C0E0E",
"e  c #900000",
"r  c #920000",
"t  c #910201",
"y  c #950000",
"u  c #950503",
"i  c #930E0F",
"p  c #940D0E",
"a  c #940E0F",
"s  c #940F0F",
"d  c #840D13",
"f  c #8E0F10",
"g  c #991816",
"h  c #A11E1B",
"j  c #8F2E38",
"k  c #A03433",
"l  c #A43434",
"z  c #AC3734",
"x  c #A9402E",
"c  c #B0512A",
"v  c #B26637",
"b  c #C17A2E",
"n  c #A74445",
"m  c #B35459",
"M  c #B75E5D",
"N  c #B97042",
"B  c #86646A",
"V  c #CC525F",
"C  c #CA7275",
"Z  c #C17678",
"A  c #C97E7D",
"S  c #ED667A",
"D  c #D09F35",
"F  c #C68355",
"G  c #C9855C",
"H  c #C6886C",
"J  c #CB947C",
"K  c #D29D7E",
"L  c #DDBA66",
"P  c #DFBC6E",
"I  c #DDB771",
"U  c #DEBA7A",
"Y  c #E3C372",
"T  c #2B4E91",
"R  c #3867AB",
"E  c #6A628A",
"W  c #4768A7",
"Q  c #4B6AA4",
"!  c #4775B3",
"~  c #5C7DB2",
"^  c #927891",
"/  c #D77880",
"(  c #D47A81",
")  c #79838B",
"_  c #7F878E",
"`  c #7A85AD",
"'  c #778BB6",
"]  c #7290B4",
"[  c #75A7B1",
"{  c #7794C0",
"}  c #7C9AC5",
"|  c #749ECD",
" . c #58C1CE",
".. c #7DC4CE",
"X. c #61C6D3",
"o. c #7FD2DD",
"O. c #87878D",
"+. c #8C838A",
"@. c #8C8F96",
"#. c #B69492",
"$. c #A795A7",
"%. c #C48585",
"&. c #C88686",
"*. c #C98686",
"=. c #CA8B88",
"-. c #C88C8D",
";. c #D3838C",
":. c #D9888E",
">. c #D68A93",
",. c #CC9596",
"<. c #D09696",
"1. c #D39E9C",
"2. c #E98492",
"3. c #E38F98",
"4. c #D59EA1",
"5. c #FF96AB",
"6. c #DAA8A8",
"7. c #DAAAAF",
"8. c #C4B8BA",
"9. c #DFB5B1",
"0. c #DCB6B5",
"q. c #E1AAAA",
"w. c #E6B2AD",
"e. c #E7B9B5",
"r. c #E6BEBB",
"t. c #E0CB93",
"y. c #ECD7A5",
"u. c #EFDDBE",
"i. c #8E9FC2",
"p. c #81A5D1",
"a. c #A5B2CE",
"s. c #A8BEDB",
"d. c #B0BAD3",
"f. c #B2BFD8",
"g. c #EDBECC",
"h. c #FDB6C2",
"j. c #86C0CA",
"k. c #92C8D4",
"l. c #90CED6",
"z. c #8AD5DF",
"x. c #9FC0E2",
"c. c #80DBE5",
"v. c #A4C0E0",
"b. c #B2CDE9",
"n. c #A4EAF2",
"m. c #E4C4C3",
"M. c #EBCFCF",
"N. c #F4C7C6",
"B. c #FEC5CE",
"V. c #E7CCD6",
"C. c #FCCAD2",
"Z. c #FECAD4",
"A. c #FBCFD7",
"S. c #FFCDD7",
"D. c #E4D2D5",
"F. c #F1D2D9",
"G. c #FED3DC",
"H. c #F1E2C0",
"J. c #F4E9C4",
"K. c #F6EBCC",
"L. c #F6E9D7",
"P. c #FDF5D4",
"I. c #D9D7E2",
"U. c #D1DFEF",
"Y. c #FDD9E0",
"T. c #FFDFE6",
"R. c #CCE3E7",
"E. c #DEE8E5",
"W. c #DDE2EC",
"Q. c #DAEAEE",
"!. c #C5EEF2",
"~. c #CDF3F6",
"^. c #CFF2F6",
"/. c #C7F8FD",
"(. c #EBEAE1",
"). c #FEE4EA",
"_. c #F7E9EB",
"`. c #FCE9EB",
"'. c #F9EEEF",
"]. c #F8F7E3",
"[. c #F8F3EE",
"{. c #F2EAF3",
"}. c #E5F5F8",
"|. c #F5F3F2",
" X c #FFF1F5",
".X c #FAF4F4",
"XX c #FFF9F1",
"oX c #FCFCF1",
"OX c #FDF8F7",
"+X c #FFF7F9",
"@X c #F6FFFF",
"#X c #FFF9FB",
"$X c #FCFFFC",
"%X c white",
"&X c None",
/* pixels */
"&X&X&X&X&X> - - s 8 - &X&X&X&X&X",
"&X&X&X> > *.C V D.M.%.i > &X&X&X",
"&X&X- a 3.G. Xg.k.%X}.) w 6 &X&X",
"&X- a S 5.C.B.F.j.l.R.n.[ w 6 &X",
"&Xk _.A.h.Z.).T.o. .~.OXc._ e &X",
"> *.%X`.#X2./ ( +.O.8.!...X.. e ",
"l .XY.A.+X:.|.0.6.N.@.z.Q./.B 6 ",
"> >.%X'.{.;.m.<.-.q.$ ~.E.@X#.- ",
"e + v.i.W # r.,.=.7.N ].(.%XH - ",
"y X ! ' | O e.A 4.V.F y.L.Y c - ",
"6 j p.d.s.E @ o v G b P U L x - ",
"&Xu ^ b.a.} R ] t.K.D I %X%XZ &X",
"&X% n ` { T Q W.XX[.u.H.%X1.9 &X",
"&X&Xe d f.x.~ U.P.oXJ.K m w &X&X",
"&X&X&Xe z w.I.$.J 9.M 7   &X&X&X",
"&X&X&X&X&X% h g f > : &X&X&X&X&X"
};
